<svg width="696" height="216" viewBox="0 0 696 216" fill="none" xmlns="http://www.w3.org/2000/svg">
<mask id="path-1-inside-1_4_31" fill="white">
<path d="M195.615 10.3105C205.344 5.69189 216.976 9.83459 221.595 19.5635L265.366 111.767C269.985 121.495 265.842 133.126 256.113 137.745C246.384 142.363 234.753 138.221 230.135 128.492L204.438 74.3623L179.564 129.829C175.158 139.656 163.62 144.049 153.793 139.643C143.966 135.236 139.572 123.698 143.979 113.871L185.742 20.7402C186.042 20.0724 186.375 19.4301 186.737 18.8135C188.633 15.2203 191.663 12.1869 195.615 10.3105ZM19.5 6.94727C30.2695 6.94727 38.9999 15.6778 39 26.4473V101.947H114.5C125.27 101.947 134 110.678 134 121.447C134 132.217 125.269 140.947 114.5 140.947H19.5C8.73045 140.947 0 132.217 0 121.447V26.4473C6.80331e-05 15.6778 8.73049 6.94727 19.5 6.94727ZM384.5 6.94727C389.962 6.94727 394.899 9.1945 398.439 12.8135C398.798 13.1234 399.148 13.4487 399.488 13.7891C407.103 21.4043 407.103 33.751 399.488 41.3662L338.907 101.947H388.5C399.27 101.947 408 110.678 408 121.447C408 132.217 399.269 140.947 388.5 140.947H293.5C288.636 140.947 284.189 139.166 280.773 136.222C280.083 135.696 279.42 135.119 278.789 134.488C271.174 126.873 271.174 114.526 278.789 106.911L339.753 45.9473H289.5C278.73 45.9473 270 37.2168 270 26.4473C270 15.6778 278.73 6.94727 289.5 6.94727H384.5ZM483 6.94727C520.003 6.94727 550 36.9442 550 73.9473C550 110.95 520.003 140.947 483 140.947C445.997 140.947 416 110.95 416 73.9473C416 36.9442 445.997 6.94727 483 6.94727ZM653.911 13.7891C661.526 6.17384 673.873 6.17384 681.488 13.7891C689.103 21.4043 689.103 33.751 681.488 41.3662L648.716 74.1387L681.488 106.911C689.104 114.526 689.103 126.873 681.488 134.488C673.873 142.104 661.526 142.104 653.911 134.488L621.139 101.716L588.366 134.488C580.751 142.103 568.404 142.103 560.789 134.488C553.174 126.873 553.174 114.526 560.789 106.911L593.562 74.1387L560.789 41.3662C553.174 33.751 553.174 21.4043 560.789 13.7891C568.404 6.17385 580.751 6.17385 588.366 13.7891L621.139 46.5615L653.911 13.7891Z"/>
</mask>
<path d="M195.615 10.3105L194.758 8.50381L194.757 8.50383L195.615 10.3105ZM221.595 19.5635L223.401 18.7058L223.401 18.7058L221.595 19.5635ZM265.366 111.767L263.559 112.624V112.624L265.366 111.767ZM256.113 137.745L256.971 139.552L256.971 139.552L256.113 137.745ZM230.135 128.492L228.328 129.35L228.328 129.35L230.135 128.492ZM204.438 74.3623L206.244 73.5046L204.386 69.5898L202.613 73.544L204.438 74.3623ZM179.564 129.829L181.389 130.647L181.389 130.647L179.564 129.829ZM153.793 139.643L152.975 141.467L152.975 141.467L153.793 139.643ZM143.979 113.871L142.154 113.053L142.154 113.053L143.979 113.871ZM185.742 20.7402L183.917 19.9219V19.9219L185.742 20.7402ZM186.737 18.8135L188.461 19.8273L188.485 19.7875L188.506 19.7467L186.737 18.8135ZM39 26.4473H41V26.4473L39 26.4473ZM39 101.947H37V103.947H39V101.947ZM134 121.447L136 121.447V121.447H134ZM0 26.4473L-2 26.4473V26.4473H0ZM384.5 6.94727V4.94727V4.94727V6.94727ZM398.439 12.8135L397.01 14.212L397.068 14.2717L397.131 14.3263L398.439 12.8135ZM399.488 13.7891L400.902 12.3749V12.3748L399.488 13.7891ZM399.488 41.3662L398.074 39.952L399.488 41.3662ZM338.907 101.947L337.493 100.533L334.079 103.947H338.907V101.947ZM408 121.447L410 121.447V121.447H408ZM293.5 140.947V142.947V142.947V140.947ZM280.773 136.222L282.079 134.707L282.034 134.668L281.986 134.631L280.773 136.222ZM278.789 134.488L277.375 135.902V135.903L278.789 134.488ZM339.753 45.9473L341.167 47.3615L344.581 43.9473H339.753V45.9473ZM270 26.4473L268 26.4473V26.4473H270ZM550 73.9473L552 73.9473V73.9473H550ZM416 73.9473H414V73.9473L416 73.9473ZM681.488 13.7891L682.903 12.3749L682.902 12.3748L681.488 13.7891ZM681.488 41.3662L680.074 39.952L681.488 41.3662ZM648.716 74.1387L647.302 72.7245L645.887 74.1387L647.302 75.5529L648.716 74.1387ZM681.488 106.911L682.902 105.497L681.488 106.911ZM681.488 134.488L682.902 135.902V135.902L681.488 134.488ZM621.139 101.716L622.553 100.302L621.139 98.8874L619.724 100.302L621.139 101.716ZM588.366 134.488L586.952 133.074L588.366 134.488ZM560.789 134.488L559.375 135.902V135.903L560.789 134.488ZM593.562 74.1387L594.976 75.5529L596.39 74.1387L594.976 72.7245L593.562 74.1387ZM560.789 13.7891L559.375 12.3748V12.3748L560.789 13.7891ZM588.366 13.7891L589.78 12.3748L588.366 13.7891ZM621.139 46.5615L619.724 47.9757L621.139 49.3899L622.553 47.9757L621.139 46.5615ZM195.615 10.3105L196.473 12.1173C205.204 7.97231 215.643 11.6902 219.788 20.4212L221.595 19.5635L223.401 18.7058C218.309 7.97898 205.484 3.41146 194.758 8.50381L195.615 10.3105ZM221.595 19.5635L219.788 20.4212L263.559 112.624L265.366 111.767L267.173 110.909L223.401 18.7058L221.595 19.5635ZM265.366 111.767L263.559 112.624C267.704 121.355 263.987 131.793 255.256 135.938L256.113 137.745L256.971 139.552C267.698 134.46 272.265 121.636 267.173 110.909L265.366 111.767ZM256.113 137.745L255.256 135.938C246.525 140.083 236.086 136.365 231.941 127.634L230.135 128.492L228.328 129.35C233.42 140.077 246.244 144.644 256.971 139.552L256.113 137.745ZM230.135 128.492L231.942 127.634L206.244 73.5046L204.438 74.3623L202.631 75.22L228.328 129.35L230.135 128.492ZM204.438 74.3623L202.613 73.544L177.74 129.011L179.564 129.829L181.389 130.647L206.262 75.1807L204.438 74.3623ZM179.564 129.829L177.74 129.011C173.785 137.829 163.43 141.772 154.611 137.818L153.793 139.643L152.975 141.467C163.809 146.326 176.531 141.482 181.389 130.647L179.564 129.829ZM153.793 139.643L154.611 137.818C145.792 133.863 141.849 123.508 145.803 114.689L143.979 113.871L142.154 113.053C137.295 123.887 142.14 136.609 152.975 141.467L153.793 139.643ZM143.979 113.871L145.803 114.689L187.567 21.5586L185.742 20.7402L183.917 19.9219L142.154 113.053L143.979 113.871ZM185.742 20.7402L187.567 21.5586C187.836 20.9591 188.135 20.3819 188.461 19.8273L186.737 18.8135L185.013 17.7997C184.614 18.4782 184.247 19.1857 183.917 19.9219L185.742 20.7402ZM186.737 18.8135L188.506 19.7467C190.207 16.5223 192.924 13.8022 196.473 12.1173L195.615 10.3105L194.757 8.50383C190.402 10.5716 187.058 13.9183 184.968 17.8803L186.737 18.8135ZM19.5 6.94727V8.94727C29.1649 8.94727 36.9999 16.7823 37 26.4473L39 26.4473L41 26.4473C40.9999 14.5732 31.3741 4.94727 19.5 4.94727V6.94727ZM39 26.4473H37V101.947H39H41V26.4473H39ZM39 101.947V103.947H114.5V101.947V99.9473H39V101.947ZM114.5 101.947V103.947C124.165 103.947 132 111.782 132 121.447H134H136C136 109.573 126.374 99.9473 114.5 99.9473V101.947ZM134 121.447L132 121.447C132 131.112 124.165 138.947 114.5 138.947V140.947V142.947C126.374 142.947 136 133.321 136 121.447L134 121.447ZM114.5 140.947V138.947H19.5V140.947V142.947H114.5V140.947ZM19.5 140.947V138.947C9.83502 138.947 2 131.112 2 121.447H0H-2C-2 133.321 7.62588 142.947 19.5 142.947V140.947ZM0 121.447H2V26.4473H0H-2V121.447H0ZM0 26.4473L2 26.4473C2.00006 16.7823 9.83507 8.94727 19.5 8.94727V6.94727V4.94727C7.62591 4.94727 -1.99993 14.5732 -2 26.4473L0 26.4473ZM384.5 6.94727V8.94727C389.402 8.94727 393.83 10.9615 397.01 14.212L398.439 12.8135L399.869 11.4149C395.969 7.42747 390.523 4.94727 384.5 4.94727V6.94727ZM398.439 12.8135L397.131 14.3263C397.453 14.6048 397.768 14.8972 398.074 15.2033L399.488 13.7891L400.902 12.3748C400.528 12.0002 400.142 11.6421 399.748 11.3006L398.439 12.8135ZM399.488 13.7891L398.074 15.2033C404.908 22.0375 404.908 33.1179 398.074 39.952L399.488 41.3662L400.902 42.7804C409.299 34.3842 409.299 20.7711 400.902 12.3749L399.488 13.7891ZM399.488 41.3662L398.074 39.952L337.493 100.533L338.907 101.947L340.321 103.361L400.902 42.7804L399.488 41.3662ZM338.907 101.947V103.947H388.5V101.947V99.9473H338.907V101.947ZM388.5 101.947V103.947C398.165 103.947 406 111.782 406 121.447H408H410C410 109.573 400.374 99.9473 388.5 99.9473V101.947ZM408 121.447L406 121.447C406 131.112 398.165 138.947 388.5 138.947V140.947V142.947C400.374 142.947 410 133.321 410 121.447L408 121.447ZM388.5 140.947V138.947H293.5V140.947V142.947H388.5V140.947ZM293.5 140.947V138.947C289.134 138.947 285.146 137.351 282.079 134.707L280.773 136.222L279.467 137.736C283.232 140.982 288.139 142.947 293.5 142.947V140.947ZM280.773 136.222L281.986 134.631C281.365 134.158 280.769 133.639 280.203 133.074L278.789 134.488L277.375 135.903C278.071 136.598 278.802 137.234 279.561 137.812L280.773 136.222ZM278.789 134.488L280.203 133.074C273.369 126.24 273.369 115.16 280.203 108.325L278.789 106.911L277.375 105.497C268.979 113.893 268.979 127.506 277.375 135.902L278.789 134.488ZM278.789 106.911L280.203 108.325L341.167 47.3615L339.753 45.9473L338.339 44.5331L277.375 105.497L278.789 106.911ZM339.753 45.9473V43.9473H289.5V45.9473V47.9473H339.753V45.9473ZM289.5 45.9473V43.9473C279.835 43.9473 272 36.1122 272 26.4473H270H268C268 38.3214 277.626 47.9473 289.5 47.9473V45.9473ZM270 26.4473L272 26.4473C272 16.7823 279.835 8.94727 289.5 8.94727V6.94727V4.94727C277.626 4.94727 268 14.5732 268 26.4473L270 26.4473ZM289.5 6.94727V8.94727H384.5V6.94727V4.94727H289.5V6.94727ZM483 6.94727V8.94727C518.898 8.94727 548 38.0488 548 73.9473H550H552C552 35.8396 521.108 4.94727 483 4.94727V6.94727ZM550 73.9473L548 73.9473C548 109.846 518.898 138.947 483 138.947V140.947V142.947C521.108 142.947 552 112.055 552 73.9473L550 73.9473ZM483 140.947V138.947C447.102 138.947 418 109.846 418 73.9473L416 73.9473L414 73.9473C414 112.055 444.892 142.947 483 142.947V140.947ZM416 73.9473H418C418 38.0488 447.102 8.94727 483 8.94727V6.94727V4.94727C444.892 4.94727 414 35.8396 414 73.9473H416ZM653.911 13.7891L655.325 15.2033C662.16 8.3691 673.24 8.3691 680.074 15.2033L681.488 13.7891L682.902 12.3748C674.506 3.97858 660.893 3.97858 652.497 12.3748L653.911 13.7891ZM681.488 13.7891L680.074 15.2033C686.908 22.0375 686.908 33.1179 680.074 39.952L681.488 41.3662L682.902 42.7804C691.299 34.3842 691.299 20.7711 682.903 12.3749L681.488 13.7891ZM681.488 41.3662L680.074 39.952L647.302 72.7245L648.716 74.1387L650.13 75.5529L682.902 42.7804L681.488 41.3662ZM648.716 74.1387L647.302 75.5529L680.074 108.325L681.488 106.911L682.902 105.497L650.13 72.7245L648.716 74.1387ZM681.488 106.911L680.074 108.325C686.908 115.16 686.908 126.24 680.074 133.074L681.488 134.488L682.902 135.902C691.299 127.506 691.299 113.893 682.902 105.497L681.488 106.911ZM681.488 134.488L680.074 133.074C673.24 139.908 662.16 139.908 655.325 133.074L653.911 134.488L652.497 135.902C660.893 144.299 674.506 144.299 682.902 135.902L681.488 134.488ZM653.911 134.488L655.325 133.074L622.553 100.302L621.139 101.716L619.724 103.13L652.497 135.902L653.911 134.488ZM621.139 101.716L619.724 100.302L586.952 133.074L588.366 134.488L589.78 135.902L622.553 103.13L621.139 101.716ZM588.366 134.488L586.952 133.074C580.118 139.908 569.037 139.908 562.203 133.074L560.789 134.488L559.375 135.903C567.771 144.299 581.384 144.299 589.78 135.902L588.366 134.488ZM560.789 134.488L562.203 133.074C555.369 126.24 555.369 115.16 562.203 108.325L560.789 106.911L559.375 105.497C550.979 113.893 550.979 127.506 559.375 135.902L560.789 134.488ZM560.789 106.911L562.203 108.325L594.976 75.5529L593.562 74.1387L592.147 72.7245L559.375 105.497L560.789 106.911ZM593.562 74.1387L594.976 72.7245L562.203 39.952L560.789 41.3662L559.375 42.7804L592.147 75.5529L593.562 74.1387ZM560.789 41.3662L562.203 39.952C555.369 33.1178 555.369 22.0375 562.203 15.2033L560.789 13.7891L559.375 12.3748C550.979 20.7711 550.979 34.3842 559.375 42.7804L560.789 41.3662ZM560.789 13.7891L562.203 15.2033C569.037 8.36911 580.118 8.36911 586.952 15.2033L588.366 13.7891L589.78 12.3748C581.384 3.97858 567.771 3.97859 559.375 12.3748L560.789 13.7891ZM588.366 13.7891L586.952 15.2033L619.724 47.9757L621.139 46.5615L622.553 45.1473L589.78 12.3748L588.366 13.7891ZM621.139 46.5615L622.553 47.9757L655.325 15.2033L653.911 13.7891L652.497 12.3748L619.724 45.1473L621.139 46.5615Z" fill="#00693A" mask="url(#path-1-inside-1_4_31)"/>
<path d="M653.911 134.489C661.527 142.104 673.873 142.104 681.489 134.489C689.104 126.873 689.104 114.527 681.489 106.911L588.366 13.7889C580.751 6.17373 568.404 6.17373 560.789 13.7889C553.174 21.4042 553.174 33.7509 560.789 41.3661L653.911 134.489Z" fill="#ED3428"/>
<path d="M399.489 41.3657C407.104 33.7505 407.104 21.4038 399.489 13.7886C391.873 6.17336 379.527 6.17336 371.911 13.7886L278.789 106.911C271.174 114.526 271.174 126.873 278.789 134.488C286.404 142.103 298.751 142.103 306.366 134.488L399.489 41.3657Z" fill="#EF3428"/>
<path opacity="0.58" d="M483 140.947C520.003 140.947 550 110.95 550 73.947C550 36.9439 520.003 6.94702 483 6.94702C445.997 6.94702 416 36.9439 416 73.947C416 110.95 445.997 140.947 483 140.947Z" fill="#CBF4BB"/>
<path d="M39 26.4474C39 15.6778 30.2696 6.94739 19.5 6.94739C8.73045 6.94739 0 15.6778 0 26.4474V121.447C0 132.217 8.73045 140.947 19.5 140.947C30.2696 140.947 39 132.217 39 121.447V26.4474Z" fill="#FD402E"/>
<path opacity="0.8" d="M114.5 140.947C125.27 140.947 134 132.217 134 121.447C134 110.677 125.27 101.947 114.5 101.947H19.5C8.73046 101.947 1.52588e-05 110.677 1.52588e-05 121.447C1.52588e-05 132.217 8.73046 140.947 19.5 140.947H114.5Z" fill="#C7F3B8"/>
<path opacity="0.8" d="M384.5 45.9474C395.27 45.9474 404 37.2169 404 26.4474C404 15.6778 395.27 6.94739 384.5 6.94739L289.5 6.94739C278.73 6.94739 270 15.6778 270 26.4474C270 37.2169 278.73 45.9474 289.5 45.9474L384.5 45.9474Z" fill="#FDBD00"/>
<path opacity="0.8" d="M388.5 140.947C399.27 140.947 408 132.217 408 121.447C408 110.677 399.27 101.947 388.5 101.947H293.5C282.73 101.947 274 110.677 274 121.447C274 132.217 282.73 140.947 293.5 140.947H388.5Z" fill="#0E9434"/>
<path opacity="0.8" d="M681.489 41.3657C689.104 33.7505 689.104 21.4038 681.489 13.7886C673.873 6.17336 661.527 6.17336 653.911 13.7886L560.789 106.911C553.174 114.526 553.174 126.873 560.789 134.488C568.404 142.103 580.751 142.103 588.366 134.488L681.489 41.3657Z" fill="#FECB2A"/>
<path d="M221.328 36.6982C225.734 26.8715 221.341 15.333 211.514 10.9264C201.687 6.5197 190.149 10.9135 185.742 20.7403L143.979 113.871C139.572 123.698 143.966 135.236 153.793 139.643C163.619 144.049 175.158 139.656 179.565 129.829L221.328 36.6982Z" fill="#5DCA50"/>
<path opacity="0.9" d="M221.594 19.563C216.976 9.83415 205.345 5.69149 195.616 10.3102C185.887 14.9288 181.744 26.5598 186.363 36.2887L230.135 128.492C234.754 138.221 246.385 142.364 256.114 137.745C265.843 133.126 269.985 121.495 265.367 111.766L221.594 19.563Z" fill="#327E35"/>
<path d="M483 95.947C495.15 95.947 505 86.0973 505 73.947C505 61.7968 495.15 51.947 483 51.947C470.85 51.947 461 61.7968 461 73.947C461 86.0973 470.85 95.947 483 95.947Z" fill="#01BE38"/>
<path d="M649.93 210.791C646.548 207.485 644.82 203.276 644.82 198.09C644.82 192.905 646.548 188.696 649.93 185.314C653.312 182.007 657.746 180.354 663.233 180.354C668.719 180.354 673.228 182.007 676.61 185.314C679.992 188.696 681.645 192.905 681.645 198.09C681.645 203.276 679.992 207.485 676.61 210.791C673.228 214.173 668.719 215.827 663.233 215.827C657.746 215.827 653.312 214.173 649.93 210.791ZM654.064 198.09C654.064 203.727 657.897 207.785 663.233 207.785C668.644 207.785 672.477 203.877 672.477 198.09C672.477 192.454 668.569 188.471 663.233 188.471C658.047 188.471 654.064 192.379 654.064 198.09Z" fill="#448242"/>
<path d="M637.329 166.601V210.791C637.329 213.422 635.977 215.601 633.046 215.601C630.566 215.601 628.762 213.948 628.687 211.468C626.056 214.248 622.825 215.601 618.992 215.601C614.182 215.601 610.349 214.023 607.418 210.866C604.487 207.785 603.059 203.652 603.059 198.466C603.059 193.13 604.788 188.771 608.245 185.389C611.702 182.007 616.136 180.354 621.622 180.354C624.478 180.354 626.808 180.88 628.687 182.007V166.601C628.687 164.271 630.566 162.392 633.046 162.392C635.451 162.392 637.329 164.271 637.329 166.601ZM628.687 204.103V190.5C626.507 189.147 624.328 188.471 621.998 188.471C616.587 188.471 612.303 192.153 612.303 198.165C612.303 203.952 615.986 207.56 620.795 207.56C623.726 207.56 626.357 206.432 628.687 204.103Z" fill="#448242"/>
<path d="M594.24 184.863V211.393C594.24 213.722 592.362 215.601 589.957 215.601C587.477 215.601 585.598 213.722 585.598 211.393V184.863C585.598 182.533 587.477 180.654 589.957 180.654C592.362 180.654 594.24 182.533 594.24 184.863ZM590.107 163.97C592.737 163.97 595.067 165.999 595.067 169.006C595.067 172.312 592.737 174.417 590.107 174.417C587.026 174.417 584.696 172.312 584.696 169.006C584.696 165.999 587.101 163.97 590.107 163.97Z" fill="#448242"/>
<path d="M574.048 207.334C576.227 207.334 577.505 208.912 577.505 210.791C577.505 212.294 576.753 213.422 575.175 214.248C573.221 215.225 570.816 215.752 568.036 215.752C560.595 215.752 557.514 211.167 557.514 202.149V175.995C557.514 173.665 559.393 171.786 561.873 171.786C564.278 171.786 566.157 173.665 566.157 175.995V181.181H572.845C575.175 181.181 577.054 183.059 577.054 185.239C577.054 187.418 575.175 189.297 572.845 189.297H566.157V201.623C566.157 205.681 567.434 207.71 570.065 207.71C571.493 207.71 573.447 207.334 574.048 207.334Z" fill="#448242"/>
<path d="M521.673 180.654C524.078 180.654 525.882 182.383 525.882 184.487C528.362 181.857 531.593 180.579 535.576 180.579C544.82 180.579 549.48 185.464 549.48 195.159V211.393C549.48 213.722 547.601 215.601 545.196 215.601C542.716 215.601 540.837 213.722 540.837 211.393V196.662C540.837 191.326 538.282 188.696 533.247 188.696C530.466 188.696 528.061 189.748 525.882 191.928V211.393C525.882 213.722 524.003 215.601 521.598 215.601C519.118 215.601 517.239 213.722 517.239 211.393V185.389C517.239 182.458 518.967 180.654 521.673 180.654Z" fill="#448242"/>
<path d="M501.048 194.934V194.784C501.048 190.575 498.117 187.569 493.307 187.569C488.422 187.569 485.416 190.049 484.439 194.934H501.048ZM506.309 200.721H484.739C485.416 205.756 489.474 208.612 494.885 208.612C497.215 208.612 499.319 208.161 501.198 207.334C502.025 206.959 502.626 206.808 503.152 206.808C504.279 206.808 505.181 207.334 505.858 208.386C506.233 208.988 506.384 209.514 506.384 210.04C506.384 211.317 505.782 212.294 504.655 212.971C501.423 214.85 497.891 215.827 493.983 215.827C488.497 215.827 484.138 214.173 480.831 210.942C477.449 207.71 475.796 203.426 475.796 198.09C475.796 193.055 477.449 188.771 480.681 185.389C483.913 182.007 488.272 180.354 493.683 180.354C498.117 180.354 501.95 181.782 505.031 184.713C508.112 187.644 509.69 191.477 509.69 196.061V197.639C509.465 199.669 508.338 200.721 506.309 200.721Z" fill="#448242"/>
<path d="M443.793 209.063C443.793 208.236 444.019 207.485 444.545 206.959C445.296 206.057 446.198 205.606 447.25 205.606C448.077 205.606 448.904 205.906 449.73 206.432C452.06 207.86 454.615 208.612 457.546 208.612C460.177 208.612 461.98 207.485 461.98 205.455C461.98 203.426 459.125 202.299 455.592 201.322C450.332 199.969 443.718 198.015 443.718 190.65C443.718 184.262 448.904 180.354 456.118 180.354C460.102 180.354 463.484 181.181 466.415 182.909C467.617 183.661 468.218 184.638 468.218 185.84C468.218 186.441 468.068 187.043 467.767 187.569C467.091 188.696 466.114 189.297 464.761 189.297C464.085 189.297 463.408 189.147 462.732 188.846C460.778 188.02 458.749 187.569 456.569 187.569C454.089 187.569 452.361 188.921 452.361 190.5C452.361 193.656 458.899 194.408 464.16 196.287C467.767 197.564 470.623 200.57 470.623 205.004C470.623 211.618 465.287 215.827 456.945 215.827C452.21 215.827 448.302 214.549 445.221 211.994C444.244 211.167 443.793 210.19 443.793 209.063Z" fill="#448242"/>
<path d="M413.931 194.934V194.784C413.931 190.575 411 187.569 406.19 187.569C401.305 187.569 398.298 190.049 397.321 194.934H413.931ZM419.191 200.721H397.622C398.298 205.756 402.357 208.612 407.768 208.612C410.098 208.612 412.202 208.161 414.081 207.334C414.908 206.959 415.509 206.808 416.035 206.808C417.162 206.808 418.064 207.334 418.74 208.386C419.116 208.988 419.267 209.514 419.267 210.04C419.267 211.317 418.665 212.294 417.538 212.971C414.306 214.85 410.774 215.827 406.866 215.827C401.38 215.827 397.021 214.173 393.714 210.942C390.332 207.71 388.679 203.426 388.679 198.09C388.679 193.055 390.332 188.771 393.564 185.389C396.795 182.007 401.154 180.354 406.565 180.354C411 180.354 414.832 181.782 417.914 184.713C420.995 187.644 422.573 191.477 422.573 196.061V197.639C422.348 199.669 421.221 200.721 419.191 200.721Z" fill="#448242"/>
<path d="M381.188 166.601V210.791C381.188 213.422 379.836 215.601 376.905 215.601C374.424 215.601 372.621 213.948 372.546 211.468C369.915 214.248 366.684 215.601 362.851 215.601C358.041 215.601 354.208 214.023 351.277 210.866C348.346 207.785 346.918 203.652 346.918 198.466C346.918 193.13 348.647 188.771 352.104 185.389C355.561 182.007 359.995 180.354 365.481 180.354C368.337 180.354 370.667 180.88 372.546 182.007V166.601C372.546 164.271 374.424 162.392 376.905 162.392C379.309 162.392 381.188 164.271 381.188 166.601ZM372.546 204.103V190.5C370.366 189.147 368.187 188.471 365.857 188.471C360.446 188.471 356.162 192.153 356.162 198.165C356.162 203.952 359.844 207.56 364.654 207.56C367.585 207.56 370.216 206.432 372.546 204.103Z" fill="#448242"/>
<path d="M296.128 205.08C296.128 197.94 301.239 194.107 308.454 194.107C311.535 194.107 314.09 194.859 316.119 196.287V195.234C316.119 190.049 314.391 187.569 309.806 187.569C307.928 187.569 306.124 187.794 304.546 188.32C303.719 188.546 303.193 188.621 302.817 188.621C301.464 188.621 300.487 188.02 299.886 186.817C299.661 186.366 299.586 185.915 299.586 185.389C299.586 183.961 300.412 182.834 302.066 182.158C304.846 180.955 307.702 180.354 310.708 180.354C320.328 180.354 324.236 185.089 324.236 194.408V211.618C324.236 213.647 322.583 215.451 320.403 215.451C318.224 215.451 316.721 213.798 316.721 211.393C314.541 214.098 311.234 215.451 306.725 215.451C300.412 215.451 296.128 211.468 296.128 205.08ZM316.119 205.08V201.623C314.692 200.495 312.662 199.969 310.182 199.969C307.101 199.969 304.771 201.472 304.771 204.178C304.771 206.658 306.8 208.161 309.581 208.161C312.512 208.161 314.692 207.109 316.119 205.08Z" fill="#448242"/>
<path d="M284.135 189.372C282.482 188.771 280.828 188.471 279.1 188.471C276.62 188.471 274.44 189.372 272.561 191.101C270.682 192.905 269.705 195.234 269.705 198.09C269.705 203.877 274.14 207.785 279.475 207.785C281.655 207.785 283.459 207.334 285.037 206.432C286.014 205.831 286.991 205.531 288.043 205.531C289.17 205.531 290.223 206.057 291.049 207.109C291.575 207.785 291.801 208.537 291.801 209.363C291.801 210.716 291.2 211.844 289.997 212.745C287.216 214.775 283.534 215.827 279.025 215.827C273.388 215.827 268.954 214.173 265.572 210.942C262.19 207.71 260.461 203.426 260.461 198.09C260.461 193.055 262.115 188.846 265.422 185.464C268.728 182.082 272.937 180.354 277.972 180.354C281.956 180.354 285.112 180.955 287.517 182.158C289.321 182.984 290.223 184.187 290.223 185.765C290.223 186.216 290.072 186.817 289.696 187.644C288.945 189.072 287.818 189.823 286.239 189.823C285.563 189.823 284.887 189.673 284.135 189.372Z" fill="#448242"/>
<path d="M246.595 194.934V194.784C246.595 190.575 243.664 187.569 238.854 187.569C233.969 187.569 230.963 190.049 229.986 194.934H246.595ZM251.855 200.721H230.286C230.963 205.756 235.021 208.612 240.432 208.612C242.762 208.612 244.866 208.161 246.745 207.334C247.572 206.959 248.173 206.808 248.699 206.808C249.826 206.808 250.728 207.334 251.404 208.386C251.78 208.988 251.931 209.514 251.931 210.04C251.931 211.317 251.329 212.294 250.202 212.971C246.97 214.85 243.438 215.827 239.53 215.827C234.044 215.827 229.685 214.173 226.378 210.942C222.996 207.71 221.343 203.426 221.343 198.09C221.343 193.055 222.996 188.771 226.228 185.389C229.459 182.007 233.818 180.354 239.229 180.354C243.664 180.354 247.496 181.782 250.578 184.713C253.659 187.644 255.237 191.477 255.237 196.061V197.639C255.012 199.669 253.885 200.721 251.855 200.721Z" fill="#448242"/>
<path d="M214.496 207.334C216.676 207.334 217.953 208.912 217.953 210.791C217.953 212.294 217.202 213.422 215.623 214.248C213.669 215.225 211.264 215.752 208.484 215.752C201.043 215.752 197.962 211.167 197.962 202.149V175.995C197.962 173.665 199.841 171.786 202.321 171.786C204.726 171.786 206.605 173.665 206.605 175.995V181.181H213.294C215.623 181.181 217.502 183.059 217.502 185.239C217.502 187.418 215.623 189.297 213.294 189.297H206.605V201.623C206.605 205.681 207.883 207.71 210.513 207.71C211.941 207.71 213.895 207.334 214.496 207.334Z" fill="#448242"/>
<path d="M159.519 210.791C156.137 207.485 154.409 203.276 154.409 198.09C154.409 192.905 156.137 188.696 159.519 185.314C162.901 182.007 167.335 180.354 172.822 180.354C178.308 180.354 182.817 182.007 186.199 185.314C189.581 188.696 191.234 192.905 191.234 198.09C191.234 203.276 189.581 207.485 186.199 210.791C182.817 214.173 178.308 215.827 172.822 215.827C167.335 215.827 162.901 214.173 159.519 210.791ZM163.653 198.09C163.653 203.727 167.486 207.785 172.822 207.785C178.233 207.785 182.065 203.877 182.065 198.09C182.065 192.454 178.157 188.471 172.822 188.471C167.636 188.471 163.653 192.379 163.653 198.09Z" fill="#448242"/>
<path d="M145.59 184.863V211.393C145.59 213.722 143.711 215.601 141.306 215.601C138.826 215.601 136.947 213.722 136.947 211.393V184.863C136.947 182.533 138.826 180.654 141.306 180.654C143.711 180.654 145.59 182.533 145.59 184.863ZM141.456 163.97C144.087 163.97 146.416 165.999 146.416 169.006C146.416 172.312 144.087 174.417 141.456 174.417C138.375 174.417 136.045 172.312 136.045 169.006C136.045 165.999 138.45 163.97 141.456 163.97Z" fill="#448242"/>
<path d="M121.854 166.601V202.149C121.854 205.681 122.906 207.485 125.01 207.485H126.288C127.115 207.485 127.641 207.56 128.017 207.71C129.445 208.236 130.121 209.213 130.121 210.791C130.121 214.023 127.415 215.601 121.929 215.601C116.142 215.601 113.211 212.294 113.211 205.681V166.601C113.211 164.271 115.09 162.392 117.57 162.392C119.975 162.392 121.854 164.271 121.854 166.601Z" fill="#448242"/>
<path d="M80.6806 166.601V183.285C83.1607 181.331 86.1668 180.354 89.6239 180.354C94.5841 180.354 98.4922 181.932 101.423 185.089C104.279 188.32 105.707 192.454 105.707 197.564C105.707 203.126 103.978 207.56 100.521 210.866C96.9891 214.173 92.3295 215.827 86.3923 215.827C82.7098 215.827 79.1775 215.15 75.7956 213.873C73.3155 212.896 72.0378 211.092 72.0378 208.462V166.601C72.0378 164.271 73.9167 162.392 76.3968 162.392C78.8017 162.392 80.6806 164.271 80.6806 166.601ZM80.6806 191.702V206.057C82.4843 207.184 84.5135 207.785 86.8432 207.785C92.4798 207.785 96.463 204.103 96.463 198.165C96.463 191.928 92.7053 188.471 87.5948 188.471C84.8141 188.471 82.5594 189.523 80.6806 191.702Z" fill="#448242"/>
<path d="M61.1144 184.863V211.393C61.1144 213.722 59.2356 215.601 56.8306 215.601C54.3505 215.601 52.4717 213.722 52.4717 211.393V184.863C52.4717 182.533 54.3505 180.654 56.8306 180.654C59.2356 180.654 61.1144 182.533 61.1144 184.863ZM56.9809 163.97C59.6113 163.97 61.9411 165.999 61.9411 169.006C61.9411 172.312 59.6113 174.417 56.9809 174.417C53.8996 174.417 51.5698 172.312 51.5698 169.006C51.5698 165.999 53.9748 163.97 56.9809 163.97Z" fill="#448242"/>
<path d="M39.7567 175.168C39.7567 180.805 37.2766 184.788 32.2413 187.193C37.7275 188.621 41.4852 192.905 41.4852 199.518C41.4852 209.965 33.6692 215.301 21.9451 215.301C19.465 215.301 16.0831 215.225 11.8745 215.15C9.39436 215.075 7.29004 212.896 7.29004 210.416V167.052C7.29004 164.571 9.39436 162.467 11.8745 162.392C15.1061 162.242 18.6383 162.167 22.4712 162.167C34.4207 162.167 39.7567 167.352 39.7567 175.168ZM23.0724 192.379H16.534V206.282C18.6383 206.508 20.6675 206.658 22.6215 206.658C29.0096 206.658 32.2413 204.103 32.2413 199.067C32.2413 194.633 28.8593 192.379 23.0724 192.379ZM16.534 171.035V184.337H22.7718C27.3562 184.337 30.5879 181.932 30.5879 177.348C30.5879 173.139 27.4314 170.809 22.3209 170.809C20.1414 170.809 18.1874 170.884 16.534 171.035Z" fill="#448242"/>
</svg>
