<svg width="800" height="248" viewBox="0 0 800 248" fill="none" xmlns="http://www.w3.org/2000/svg">
<rect width="800" height="248" fill=""/>
<rect x="749.277" y="167.7" width="39" height="170.695" rx="19.5" transform="rotate(135 749.277 167.7)" fill="#DCA407"/>
<rect x="439.7" y="47" width="39" height="170.695" rx="19.5" transform="rotate(45 439.7 47)" fill="#FFCC00"/>
<circle cx="537" cy="120.947" r="67" fill="#B5FFCC"/>
<rect x="54" y="53.9474" width="39" height="134" rx="19.5" fill="#FD402E"/>
<rect opacity="0.8" x="188" y="148.947" width="39" height="134" rx="19.5" transform="rotate(90 188 148.947)" fill="#B5FFCC"/>
<rect opacity="0.8" x="458" y="53.9474" width="39" height="134" rx="19.5" transform="rotate(90 458 53.9474)" fill="#FD402E"/>
<rect opacity="0.8" x="462" y="148.947" width="39" height="134" rx="19.5" transform="rotate(90 462 148.947)" fill="#04CD60"/>
<rect opacity="0.8" x="721.7" y="47" width="39" height="170.695" rx="19.5" transform="rotate(45 721.7 47)" fill="#FFDA27"/>
<rect x="247.721" y="49.9474" width="39" height="141.066" rx="19.5" transform="rotate(24.1532 247.721 49.9474)" fill="#66CC66"/>
<rect opacity="0.9" x="232" y="65.673" width="39" height="141.066" rx="19.5" transform="rotate(-25.3954 232 65.673)" fill="#488D46"/>
<circle cx="537" cy="120.947" r="22" fill="#04CD60"/>
</svg>
